<svg id="EN" xmlns="http://www.w3.org/2000/svg" xmlns:xlink="http://www.w3.org/1999/xlink" viewBox="0 0 289.34 86"><defs><style>.cls-1{fill:#1d1d1b;}.cls-10,.cls-2,.cls-3{fill:#fff;}.cls-2{stroke:#fff;stroke-miterlimit:10;stroke-width:0.43px;}.cls-4{fill:url(#linear-gradient);}.cls-5{fill:url(#linear-gradient-2);}.cls-6{fill:url(#linear-gradient-3);}.cls-7{fill:url(#linear-gradient-4);}.cls-8{opacity:0.2;}.cls-10,.cls-8,.cls-9{isolation:isolate;}.cls-9{opacity:0.12;}.cls-10{opacity:0.25;}</style><linearGradient id="linear-gradient" x1="46.5" y1="67.25" x2="10.45" y2="31.2" gradientTransform="matrix(1, 0, 0, -1, 0, 85.99)" gradientUnits="userSpaceOnUse"><stop offset="0" stop-color="#00a0ff"/><stop offset="0.01" stop-color="#00a1ff"/><stop offset="0.26" stop-color="#00beff"/><stop offset="0.51" stop-color="#00d2ff"/><stop offset="0.76" stop-color="#00dfff"/><stop offset="1" stop-color="#00e3ff"/></linearGradient><linearGradient id="linear-gradient-2" x1="72.35" y1="42.99" x2="20.37" y2="42.99" gradientTransform="matrix(1, 0, 0, -1, 0, 85.99)" gradientUnits="userSpaceOnUse"><stop offset="0" stop-color="#ffe000"/><stop offset="0.41" stop-color="#ffbd00"/><stop offset="0.78" stop-color="orange"/><stop offset="1" stop-color="#ff9c00"/></linearGradient><linearGradient id="linear-gradient-3" x1="53" y1="38.06" x2="4.11" y2="-10.83" gradientTransform="matrix(1, 0, 0, -1, 0, 85.99)" gradientUnits="userSpaceOnUse"><stop offset="0" stop-color="#ff3a44"/><stop offset="1" stop-color="#c31162"/></linearGradient><linearGradient id="linear-gradient-4" x1="15.34" y1="85.58" x2="37.17" y2="63.75" gradientTransform="matrix(1, 0, 0, -1, 0, 85.99)" gradientUnits="userSpaceOnUse"><stop offset="0" stop-color="#32a071"/><stop offset="0.07" stop-color="#2da771"/><stop offset="0.48" stop-color="#15cf74"/><stop offset="0.8" stop-color="#06e775"/><stop offset="1" stop-color="#00f076"/></linearGradient></defs><title>en</title><rect class="cls-1" width="289.34" height="86" rx="18.39"/><path class="cls-2" d="M101.53,22a5.8,5.8,0,0,1-1.6,4.3,6.25,6.25,0,0,1-4.74,1.91,6.63,6.63,0,0,1-6.69-6.73,6.63,6.63,0,0,1,6.69-6.73,6.65,6.65,0,0,1,2.65.54,5.37,5.37,0,0,1,2,1.44L98.72,17.9a4.35,4.35,0,0,0-3.53-1.53,5,5,0,0,0-5,5.15,5,5,0,0,0,5,5.15,4.88,4.88,0,0,0,3.6-1.44,4,4,0,0,0,1.08-2.61H95.19V21.07h6.25A5.56,5.56,0,0,1,101.53,22Z"/><path class="cls-2" d="M111.43,16.66h-5.87v4.08h5.29v1.55h-5.29v4.09h5.87V28h-7.52V15.07h7.52Z"/><path class="cls-2" d="M118.41,28h-1.65V16.66h-3.6V15.07H122v1.59h-3.6Z"/><path class="cls-2" d="M128.42,28V15.07h1.66V28Z"/><path class="cls-2" d="M137.42,28h-1.65V16.66h-3.6V15.07H141v1.59h-3.6Z"/><path class="cls-2" d="M157.79,26.3a6.7,6.7,0,0,1-9.45,0,6.59,6.59,0,0,1-1.9-4.78,6.57,6.57,0,0,1,1.9-4.78,6.68,6.68,0,0,1,9.44,0,6.6,6.6,0,0,1,1.91,4.77A6.59,6.59,0,0,1,157.79,26.3Zm-8.23-1.08a5,5,0,0,0,7,0,5.07,5.07,0,0,0,1.43-3.7,5.05,5.05,0,0,0-1.43-3.7,5,5,0,0,0-7,0,5.05,5.05,0,0,0-1.43,3.7A5.07,5.07,0,0,0,149.56,25.22Z"/><path class="cls-2" d="M162,28V15.07h2l6.26,10h.08l-.08-2.48V15.07H172V28h-1.73l-6.55-10.51h-.07l.07,2.48v8Z"/><path class="cls-3" d="M146,46.76a9.14,9.14,0,1,0,9.17,9.14A9,9,0,0,0,146,46.76Zm0,14.68a5.55,5.55,0,1,1,5.16-5.54A5.28,5.28,0,0,1,146,61.44ZM126,46.76a9.14,9.14,0,1,0,9.17,9.14A9,9,0,0,0,126,46.76Zm0,14.68a5.55,5.55,0,1,1,5.15-5.54A5.29,5.29,0,0,1,126,61.44Zm-23.8-11.87v3.87h9.27a8,8,0,0,1-2.11,4.88,9.49,9.49,0,0,1-7.16,2.84,10.32,10.32,0,0,1,0-20.63,9.87,9.87,0,0,1,7,2.77L112,40.57a13.5,13.5,0,0,0-9.72-3.91,14.19,14.19,0,1,0,0,28.38,13,13,0,0,0,9.9-4A12.82,12.82,0,0,0,115.48,52a12.46,12.46,0,0,0-.21-2.42Zm97.33,3c-.76-2-3.08-5.82-7.82-5.82s-8.62,3.71-8.62,9.14A8.94,8.94,0,0,0,192.19,65,9.11,9.11,0,0,0,199.8,61l-3.12-2.08a5.2,5.2,0,0,1-4.49,2.53,4.64,4.64,0,0,1-4.43-2.77L200,53.62Zm-12.46,3a5,5,0,0,1,4.77-5.33,3.55,3.55,0,0,1,3.4,1.94Zm-9.93,8.86h4V37.63h-4ZM170.59,48.8h-.14a6.34,6.34,0,0,0-4.81-2,9.15,9.15,0,0,0,0,18.28A6.22,6.22,0,0,0,170.45,63h.14v1.31c0,3.5-1.87,5.37-4.88,5.37a5.05,5.05,0,0,1-4.6-3.25l-3.5,1.45a8.72,8.72,0,0,0,8.1,5.4c4.71,0,8.69-2.77,8.69-9.52V47.32h-3.81ZM166,61.44a5.56,5.56,0,0,1,0-11.08c2.73,0,4.88,2.36,4.88,5.57S168.72,61.44,166,61.44Zm52.37-23.81h-9.6V64.48h4V54.31h5.6c4.44,0,8.81-3.22,8.81-8.34S222.8,37.63,218.36,37.63Zm.11,12.94h-5.71V41.36h5.71a4.61,4.61,0,1,1,0,9.21Zm24.77-3.86c-2.91,0-5.91,1.28-7.15,4.11l3.55,1.49a3.8,3.8,0,0,1,3.67-2c2.07,0,4.18,1.24,4.21,3.46v.27a8.91,8.91,0,0,0-4.18-1c-3.83,0-7.74,2.1-7.74,6,0,3.59,3.15,5.91,6.67,5.91a5.65,5.65,0,0,0,5.11-2.63h.14v2.08h3.87V54.14C251.39,49.37,247.83,46.71,243.24,46.71Zm-.49,14.72c-1.31,0-3.14-.66-3.14-2.28,0-2.07,2.28-2.87,4.25-2.87a7.12,7.12,0,0,1,3.66.9A4.85,4.85,0,0,1,242.75,61.43ZM265.49,47.3l-4.6,11.64h-.14L256,47.3h-4.32l7.15,16.27-4.08,9.06h4.18l11-25.33ZM229.38,64.48h4V37.63h-4Z"/><path class="cls-4" d="M22.08,16.23a4.33,4.33,0,0,0-1,3V66.76a4.3,4.3,0,0,0,1,3l.16.16L48.86,43.32v-.63L22.24,16.07Z"/><path class="cls-5" d="M57.73,52.19l-8.87-8.87v-.63l8.87-8.87.2.11,10.51,6c3,1.71,3,4.5,0,6.2l-10.51,6Z"/><path class="cls-6" d="M57.93,52.08,48.86,43,22.08,69.77c1,1,2.63,1.18,4.47.14L57.93,52.08"/><path class="cls-7" d="M57.93,33.93,26.55,16.1c-1.84-1.05-3.48-.92-4.47.13L48.86,43Z"/><path class="cls-8" d="M57.73,51.88,26.55,69.59c-1.75,1-3.31.93-4.31,0h0l-.16.16h0l.16.15h0c1,.9,2.56,1,4.31,0L57.93,52.08Z"/><path class="cls-9" d="M22.08,69.46a4.33,4.33,0,0,1-1-3v.32a4.34,4.34,0,0,0,1,3l.16-.16Z"/><path class="cls-9" d="M68.44,45.79,57.73,51.88l.2.2,10.51-6A3.76,3.76,0,0,0,70.69,43h0A4,4,0,0,1,68.44,45.79Z"/><path class="cls-10" d="M26.55,16.41l41.89,23.8A4,4,0,0,1,70.69,43h0a3.77,3.77,0,0,0-2.25-3.1L26.55,16.1c-3-1.71-5.46-.29-5.46,3.15v.31C21.09,16.12,23.55,14.71,26.55,16.41Z"/></svg>