<svg id="EN" xmlns="http://www.w3.org/2000/svg" viewBox="0 0 287.99 86"><defs><style>.cls-1{fill:#1d1d1b;}.cls-2{fill:#fff;}</style></defs><title>en</title><rect class="cls-1" y="-0.18" width="287.99" height="86" rx="18.35"/><path class="cls-2" d="M61,41.27a12.33,12.33,0,0,1,5.88-10.36,12.64,12.64,0,0,0-10-5.39C52.71,25.08,48.64,28,46.5,28s-5.46-2.47-9-2.4a13.27,13.27,0,0,0-11.16,6.82c-4.83,8.36-1.23,20.64,3.4,27.4,2.31,3.31,5,7,8.56,6.88s4.75-2.21,8.93-2.21,5.36,2.21,9,2.12,6.05-3.32,8.29-6.66a27.5,27.5,0,0,0,3.79-7.72A11.94,11.94,0,0,1,61,41.27Z"/><path class="cls-2" d="M54.16,21.07a12.13,12.13,0,0,0,2.78-8.71,12.41,12.41,0,0,0-8,4.14c-1.71,2-3.25,5.3-2.85,8.4C49.11,25.12,52.22,23.37,54.16,21.07Z"/><path class="cls-2" d="M111.1,66.25h-4.84l-2.65-8.33H94.39l-2.52,8.33H87.15l9.13-28.36h5.64Zm-8.29-11.83-2.4-7.4Q100,45.88,99,41.68h-.09q-.4,1.8-1.34,5.34l-2.36,7.4Z"/><path class="cls-2" d="M134.58,55.77A11.63,11.63,0,0,1,131.76,64a8.25,8.25,0,0,1-6.27,2.69c-2.7,0-4.63-1-5.81-2.9h-.09V74.58h-4.54v-22c0-2.18-.06-4.43-.17-6.73h4l.25,3.24h.09a8.09,8.09,0,0,1,12.94-.8A11.29,11.29,0,0,1,134.58,55.77Zm-4.63.17A8.4,8.4,0,0,0,128.6,51a4.64,4.64,0,0,0-3.95-2,4.7,4.7,0,0,0-3.05,1.11A5.15,5.15,0,0,0,119.81,53a5.93,5.93,0,0,0-.21,1.38v3.41A5.48,5.48,0,0,0,121,61.6a4.57,4.57,0,0,0,3.56,1.54,4.66,4.66,0,0,0,4-2A8.74,8.74,0,0,0,130,55.94Z"/><path class="cls-2" d="M158.1,55.77A11.63,11.63,0,0,1,155.28,64,8.25,8.25,0,0,1,149,66.71c-2.7,0-4.63-1-5.81-2.9h-.08V74.58h-4.55v-22c0-2.18,0-4.43-.16-6.73h4l.26,3.24h.08a8.09,8.09,0,0,1,12.94-.8A11.29,11.29,0,0,1,158.1,55.77Zm-4.63.17A8.4,8.4,0,0,0,152.12,51a4.64,4.64,0,0,0-4-2,4.75,4.75,0,0,0-3.06,1.11A5.19,5.19,0,0,0,143.33,53a5.93,5.93,0,0,0-.21,1.38v3.41a5.48,5.48,0,0,0,1.36,3.77A4.56,4.56,0,0,0,148,63.14a4.66,4.66,0,0,0,4-2A8.74,8.74,0,0,0,153.47,55.94Z"/><path class="cls-2" d="M184.4,58.3a7.57,7.57,0,0,1-2.52,5.89c-1.85,1.65-4.42,2.48-7.73,2.48a13.51,13.51,0,0,1-7.35-1.77l1-3.78a12.54,12.54,0,0,0,6.57,1.81,6.21,6.21,0,0,0,4-1.16,3.77,3.77,0,0,0,1.43-3.1,4,4,0,0,0-1.18-2.91,11.13,11.13,0,0,0-3.91-2.19c-5-1.85-7.45-4.57-7.45-8.13a7.19,7.19,0,0,1,2.61-5.73,10.31,10.31,0,0,1,7-2.24,13.7,13.7,0,0,1,6.43,1.35l-1.13,3.7a11.18,11.18,0,0,0-5.43-1.3A5.45,5.45,0,0,0,173,42.4,3.35,3.35,0,0,0,171.86,45a3.45,3.45,0,0,0,1.3,2.77,14.39,14.39,0,0,0,4.13,2.19,13.89,13.89,0,0,1,5.38,3.45A7.21,7.21,0,0,1,184.4,58.3Z"/><path class="cls-2" d="M199.42,49.21h-5v9.93c0,2.52.88,3.79,2.65,3.79a8.08,8.08,0,0,0,2-.22l.13,3.45a10.21,10.21,0,0,1-3.54.51A5.48,5.48,0,0,1,191.46,65q-1.52-1.65-1.51-5.52V49.2h-3V45.8h3V42.05l4.46-1.35v5.1h5Z"/><path class="cls-2" d="M222,55.86a11.19,11.19,0,0,1-2.69,7.74,9.6,9.6,0,0,1-7.49,3.11,9.14,9.14,0,0,1-7.17-3A10.9,10.9,0,0,1,202,56.2a11.13,11.13,0,0,1,2.76-7.79,9.52,9.52,0,0,1,7.42-3,9.34,9.34,0,0,1,7.24,3A10.72,10.72,0,0,1,222,55.86ZM217.3,56a9.17,9.17,0,0,0-1.22-4.85A4.49,4.49,0,0,0,212,48.7a4.55,4.55,0,0,0-4.16,2.45,9.33,9.33,0,0,0-1.22,4.94,9.17,9.17,0,0,0,1.22,4.85,4.64,4.64,0,0,0,8.2,0A9.23,9.23,0,0,0,217.3,56Z"/><path class="cls-2" d="M236.78,49.8a7.31,7.31,0,0,0-1.43-.13,4.28,4.28,0,0,0-3.7,1.81,6.79,6.79,0,0,0-1.14,4V66.25H226l0-14c0-2.36,0-4.5-.17-6.44h4l.17,3.91h.12a7.1,7.1,0,0,1,2.27-3.24,5.52,5.52,0,0,1,3.29-1.09,7.59,7.59,0,0,1,1.13.08Z"/><path class="cls-2" d="M257.1,55.06a11,11,0,0,1-.16,2.06H243.31a5.94,5.94,0,0,0,2,4.63,6.78,6.78,0,0,0,4.46,1.43,15,15,0,0,0,5.52-1l.71,3.16a17.11,17.11,0,0,1-6.86,1.26,9.91,9.91,0,0,1-7.47-2.8,10.36,10.36,0,0,1-2.71-7.51,11.71,11.71,0,0,1,2.53-7.7,8.69,8.69,0,0,1,7.15-3.28,7.61,7.61,0,0,1,6.69,3.28A11.08,11.08,0,0,1,257.1,55.06Zm-4.33-1.18a6.2,6.2,0,0,0-.88-3.49,4,4,0,0,0-3.62-1.9,4.32,4.32,0,0,0-3.62,1.85,6.87,6.87,0,0,0-1.34,3.54Z"/><path class="cls-2" d="M101.31,20.44a7,7,0,0,1-2.26,5.67,9,9,0,0,1-5.93,1.75,27.87,27.87,0,0,1-3.27-.16V14a24.4,24.4,0,0,1,3.85-.29,8.3,8.3,0,0,1,5.52,1.59A6.44,6.44,0,0,1,101.31,20.44ZM99,20.5a5.1,5.1,0,0,0-1.29-3.74,5.09,5.09,0,0,0-3.78-1.3,10.08,10.08,0,0,0-1.79.14V26a10.43,10.43,0,0,0,1.5.06,5.29,5.29,0,0,0,4-1.42A5.72,5.72,0,0,0,99,20.5Z"/><path class="cls-2" d="M113.79,22.63a5.54,5.54,0,0,1-1.32,3.81A4.73,4.73,0,0,1,108.79,28a4.5,4.5,0,0,1-3.53-1.47A5.36,5.36,0,0,1,104,22.8,5.46,5.46,0,0,1,105.31,19,4.67,4.67,0,0,1,109,17.49,4.62,4.62,0,0,1,112.51,19,5.32,5.32,0,0,1,113.79,22.63Zm-2.32.07a4.62,4.62,0,0,0-.59-2.38,2.21,2.21,0,0,0-2-1.2,2.25,2.25,0,0,0-2.05,1.2,4.59,4.59,0,0,0-.59,2.42,4.63,4.63,0,0,0,.59,2.39,2.27,2.27,0,0,0,2,1.2,2.23,2.23,0,0,0,2-1.22A4.48,4.48,0,0,0,111.47,22.7Z"/><path class="cls-2" d="M130.53,17.69l-3.14,10h-2L124,23.38c-.33-1.09-.6-2.18-.81-3.25h0a24.46,24.46,0,0,1-.8,3.25L121,27.74h-2.07l-3-10h2.29l1.14,4.78c.27,1.13.5,2.2.68,3.22h0c.17-.84.44-1.91.83-3.2l1.43-4.8h1.82l1.36,4.7q.5,1.71.81,3.3h.06a31.87,31.87,0,0,1,.68-3.3l1.22-4.7Z"/><path class="cls-2" d="M142.11,27.74h-2.23V22c0-1.77-.67-2.66-2-2.66a2,2,0,0,0-1.61.74,2.58,2.58,0,0,0-.62,1.72v6h-2.23V20.56c0-.88,0-1.84-.08-2.87h2l.1,1.57h.07a3.17,3.17,0,0,1,1.15-1.21,3.77,3.77,0,0,1,2-.57,3.19,3.19,0,0,1,2.33.91,4.38,4.38,0,0,1,1.16,3.33Z"/><path class="cls-2" d="M148.27,27.74H146V13.08h2.23Z"/><path class="cls-2" d="M161.42,22.63a5.54,5.54,0,0,1-1.32,3.81A4.75,4.75,0,0,1,156.42,28a4.5,4.5,0,0,1-3.53-1.47,5.36,5.36,0,0,1-1.31-3.7A5.5,5.5,0,0,1,152.93,19a4.7,4.7,0,0,1,3.65-1.48A4.62,4.62,0,0,1,160.14,19,5.32,5.32,0,0,1,161.42,22.63Zm-2.32.07a4.52,4.52,0,0,0-.6-2.38,2.19,2.19,0,0,0-2-1.2,2.24,2.24,0,0,0-2.05,1.2,4.6,4.6,0,0,0-.6,2.42,4.54,4.54,0,0,0,.6,2.39,2.27,2.27,0,0,0,2,1.2,2.23,2.23,0,0,0,2-1.22A4.48,4.48,0,0,0,159.1,22.7Z"/><path class="cls-2" d="M172.23,27.74h-2l-.16-1.16H170A3.47,3.47,0,0,1,167.06,28a3,3,0,0,1-2.29-.91,2.85,2.85,0,0,1-.79-2,3.12,3.12,0,0,1,1.54-2.81,8,8,0,0,1,4.34-.95v-.19c0-1.32-.7-2-2.09-2a4.7,4.7,0,0,0-2.62.74l-.45-1.47a6.48,6.48,0,0,1,3.44-.86q3.95,0,3.94,4.15v3.7A15.07,15.07,0,0,0,172.23,27.74Zm-2.32-3.45V22.74c-2.46,0-3.69.63-3.69,2a1.53,1.53,0,0,0,.42,1.18,1.58,1.58,0,0,0,1.09.39,2.26,2.26,0,0,0,1.37-.46,1.88,1.88,0,0,0,.77-1.19A1.51,1.51,0,0,0,169.91,24.29Z"/><path class="cls-2" d="M184.92,27.74h-2l-.11-1.62h-.06A3.33,3.33,0,0,1,179.55,28a3.78,3.78,0,0,1-3-1.43,5.54,5.54,0,0,1-1.2-3.7,5.82,5.82,0,0,1,1.3-3.95,4,4,0,0,1,3.1-1.4,3,3,0,0,1,2.83,1.36h.05V13.08h2.23V25C184.84,26,184.87,26.91,184.92,27.74Zm-2.31-4.24V21.83a3.32,3.32,0,0,0-.07-.71,2.5,2.5,0,0,0-.8-1.35,2.24,2.24,0,0,0-1.5-.55,2.28,2.28,0,0,0-2,1,4.2,4.2,0,0,0-.72,2.54,4,4,0,0,0,.69,2.42,2.29,2.29,0,0,0,1.95,1,2.15,2.15,0,0,0,1.76-.83A2.76,2.76,0,0,0,182.61,23.5Z"/><path class="cls-2" d="M204,22.63a5.54,5.54,0,0,1-1.32,3.81A4.73,4.73,0,0,1,199,28a4.52,4.52,0,0,1-3.53-1.47,5.36,5.36,0,0,1-1.31-3.7A5.46,5.46,0,0,1,195.54,19a4.68,4.68,0,0,1,3.65-1.48A4.6,4.6,0,0,1,202.74,19,5.32,5.32,0,0,1,204,22.63Zm-2.31.07a4.52,4.52,0,0,0-.6-2.38,2.21,2.21,0,0,0-2-1.2,2.26,2.26,0,0,0-2,1.2,4.59,4.59,0,0,0-.59,2.42,4.63,4.63,0,0,0,.59,2.39,2.29,2.29,0,0,0,4,0A4.57,4.57,0,0,0,201.71,22.7Z"/><path class="cls-2" d="M216,27.74H213.8V22c0-1.77-.67-2.66-2-2.66a2,2,0,0,0-1.61.74,2.58,2.58,0,0,0-.62,1.72v6h-2.23V20.56c0-.88,0-1.84-.08-2.87h2l.1,1.57h.06a3.27,3.27,0,0,1,1.16-1.21,3.75,3.75,0,0,1,2-.57,3.19,3.19,0,0,1,2.33.91A4.38,4.38,0,0,1,216,21.72Z"/><path class="cls-2" d="M231.06,19.36H228.6v4.89c0,1.24.44,1.86,1.3,1.86a4,4,0,0,0,1-.11l.06,1.7a5.2,5.2,0,0,1-1.74.24,2.64,2.64,0,0,1-2.06-.8,3.94,3.94,0,0,1-.75-2.71V19.36h-1.47V17.69h1.47V15.85l2.19-.66v2.5h2.46v1.67Z"/><path class="cls-2" d="M242.89,27.74h-2.24V22c0-1.8-.67-2.71-2-2.71a2.13,2.13,0,0,0-2.13,1.57,2.66,2.66,0,0,0-.11.8v6h-2.23V13.08h2.23v6.06h0a3.38,3.38,0,0,1,3-1.65,3.1,3.1,0,0,1,2.3.91,4.54,4.54,0,0,1,1.14,3.36Z"/><path class="cls-2" d="M255.08,22.24a5.65,5.65,0,0,1-.08,1h-6.7a2.94,2.94,0,0,0,1,2.28,3.38,3.38,0,0,0,2.19.7,7.34,7.34,0,0,0,2.71-.48l.35,1.56a8.45,8.45,0,0,1-3.37.62,4.86,4.86,0,0,1-3.67-1.38,5.08,5.08,0,0,1-1.33-3.69,5.75,5.75,0,0,1,1.24-3.78,4.29,4.29,0,0,1,3.51-1.61,3.76,3.76,0,0,1,3.29,1.61A5.35,5.35,0,0,1,255.08,22.24ZM253,21.66a3,3,0,0,0-.43-1.71,2,2,0,0,0-1.78-.93,2.12,2.12,0,0,0-1.78.91,3.35,3.35,0,0,0-.66,1.73Z"/></svg>